<svg xmlns="http://www.w3.org/2000/svg" viewBox="0 0 100 100">
  <defs>
    <linearGradient id="grad1" x1="0%" y1="0%" x2="100%" y2="100%">
      <stop offset="0%" style="stop-color:#9333ea;stop-opacity:1" />
      <stop offset="50%" style="stop-color:#ec4899;stop-opacity:1" />
      <stop offset="100%" style="stop-color:#3b82f6;stop-opacity:1" />
    </linearGradient>
  </defs>
  
  <!-- Outer circle -->
  <circle cx="50" cy="50" r="45" fill="url(#grad1)" opacity="0.2"/>
  
  <!-- Zodiac wheel -->
  <circle cx="50" cy="50" r="35" fill="none" stroke="url(#grad1)" stroke-width="2"/>
  
  <!-- Stars -->
  <path d="M50 20 L52 26 L58 26 L53 30 L55 36 L50 32 L45 36 L47 30 L42 26 L48 26 Z" fill="url(#grad1)"/>
  
  <!-- Inner star -->
  <path d="M50 35 L51 40 L56 40 L52 43 L54 48 L50 45 L46 48 L48 43 L44 40 L49 40 Z" fill="url(#grad1)" opacity="0.8"/>
  
  <!-- Center circle -->
  <circle cx="50" cy="50" r="8" fill="url(#grad1)"/>
  
  <!-- Small stars around -->
  <circle cx="30" cy="30" r="2" fill="#9333ea"/>
  <circle cx="70" cy="30" r="2" fill="#ec4899"/>
  <circle cx="30" cy="70" r="2" fill="#3b82f6"/>
  <circle cx="70" cy="70" r="2" fill="#9333ea"/>
</svg>
